<svg width="20" height="18" viewBox="0 0 19 19" fill="none" xmlns="http://www.w3.org/2000/svg"><path d="M9.85025 0.0264293C4.80526 -0.354262 0.407148 3.42667 0.0264564 8.47166C-0.354235 13.5167 3.4267 17.9148 8.47169 18.2955C13.2088 18.6529 17.3756 15.3412 18.1817 10.7591C18.2693 10.2608 17.8865 9.81937 17.382 9.78129C16.8775 9.74323 16.4434 10.1233 16.3427 10.6191C16.0572 12.0248 15.3636 13.323 14.3391 14.346C13.0974 15.5858 11.4521 16.3389 9.70222 16.4685C7.95235 16.5981 6.21407 16.0955 4.80332 15.0521C3.39258 14.0087 2.40303 12.4938 2.01453 10.7827C1.62603 9.07158 1.86437 7.27787 2.68623 5.72758C3.5081 4.1773 4.85892 2.97336 6.49318 2.33458C8.12744 1.69581 9.93665 1.66461 11.592 2.24665C13.0757 2.76837 15.2594 4.98996 15.3361 5.4449C15.3497 5.52552 15.2337 5.51646 15.1544 5.49663L14.342 5.29353C13.7722 5.15109 13.2052 5.53562 13.1267 6.11764C13.051 6.67937 13.4637 7.18899 14.0289 7.23164L17.4706 7.49135C18.0214 7.53291 18.5015 7.12015 18.5431 6.56943L18.8113 3.01446C18.85 2.50163 18.4656 2.05452 17.9528 2.01582C17.4519 1.97803 17.0113 2.34428 16.957 2.84363L16.7738 4.52649C16.86 3.38468 15.0837 2.02808 13.8631 1.29811C12.6425 0.56815 11.2685 0.132737 9.85025 0.0264293Z" fill="white"/></svg>