<svg width="20" height="18" viewBox="0 0 20 20" fill="none" xmlns="http://www.w3.org/2000/svg"><path d="M15 19.0001H5M15 19.0001H15.803C16.921 19.0001 17.48 19.0001 17.907 18.7821C18.284 18.5901 18.59 18.2841 18.782 17.9081C19 17.4811 19 16.9211 19 15.8031V7.22012C19 6.77012 19 6.54512 18.952 6.33112C18.9094 6.14021 18.8389 5.95659 18.743 5.78612C18.637 5.59612 18.487 5.43112 18.193 5.10412L15.438 2.04212C15.097 1.66412 14.924 1.47212 14.717 1.33412C14.5303 1.21026 14.3241 1.11865 14.107 1.06312C13.863 1.00012 13.6 1.00012 13.075 1.00012H4.2C3.08 1.00012 2.52 1.00012 2.092 1.21812C1.71569 1.40987 1.40974 1.71581 1.218 2.09212C1 2.52012 1 3.08012 1 4.20012V15.8001C1 16.9201 1 17.4801 1.218 17.9071C1.41 18.2841 1.715 18.5901 2.092 18.7821C2.519 19.0001 3.079 19.0001 4.197 19.0001H5M15 19.0001V15.1971C15 14.0791 15 13.5191 14.782 13.0921C14.59 12.7157 14.2837 12.4097 13.907 12.2181C13.48 12.0001 12.92 12.0001 11.8 12.0001H8.2C7.08 12.0001 6.52 12.0001 6.092 12.2181C5.71569 12.4099 5.40974 12.7158 5.218 13.0921C5 13.5201 5 14.0801 5 15.2001V19.0001M13 5.00012H7" stroke="white" stroke-width="2" stroke-linecap="round" stroke-linejoin="round"/></svg>