<svg width="22" height="16" viewBox="0 0 22 16" fill="none" xmlns="http://www.w3.org/2000/svg"><path d="M20.394 6.89498C20.698 7.32098 20.85 7.53498 20.85 7.84998C20.85 8.16598 20.698 8.37898 20.394 8.80498C19.028 10.721 15.539 14.85 10.85 14.85C6.15998 14.85 2.67198 10.72 1.30598 8.80498C1.00198 8.37898 0.849976 8.16498 0.849976 7.84998C0.849976 7.53398 1.00198 7.32098 1.30598 6.89498C2.67198 4.97898 6.16098 0.849976 10.85 0.849976C15.54 0.849976 19.028 4.97998 20.394 6.89498Z" stroke="white" stroke-width="1.7"/><path d="M13.85 7.84998C13.85 7.05433 13.5339 6.29126 12.9713 5.72865C12.4087 5.16605 11.6456 4.84998 10.85 4.84998C10.0543 4.84998 9.29126 5.16605 8.72865 5.72865C8.16605 6.29126 7.84998 7.05433 7.84998 7.84998C7.84998 8.64563 8.16605 9.40869 8.72865 9.9713C9.29126 10.5339 10.0543 10.85 10.85 10.85C11.6456 10.85 12.4087 10.5339 12.9713 9.9713C13.5339 9.40869 13.85 8.64563 13.85 7.84998Z" stroke="white" stroke-width="1.7"/></svg>